<svg xmlns="http://www.w3.org/2000/svg" xmlns:xlink="http://www.w3.org/1999/xlink" width="500" zoomAndPan="magnify" viewBox="0 0 375 374.999991" height="500" preserveAspectRatio="xMidYMid meet" version="1.0"><defs><g/></defs><path fill="#0077b6" d="M 204.855469 309.566406 C 206.664062 309.308594 208.46875 309.011719 210.265625 308.671875 C 212.0625 308.332031 213.851562 307.953125 215.632812 307.535156 C 217.410156 307.113281 219.179688 306.65625 220.941406 306.160156 C 222.699219 305.660156 224.445312 305.125 226.183594 304.546875 C 227.917969 303.972656 229.640625 303.355469 231.347656 302.703125 C 233.054688 302.050781 234.75 301.359375 236.425781 300.632812 C 238.101562 299.902344 239.761719 299.136719 241.40625 298.335938 C 243.046875 297.53125 244.671875 296.691406 246.277344 295.816406 C 247.882812 294.941406 249.46875 294.03125 251.035156 293.085938 C 252.597656 292.140625 254.140625 291.160156 255.664062 290.144531 C 257.183594 289.128906 258.683594 288.082031 260.15625 287 C 261.628906 285.917969 263.078125 284.804688 264.503906 283.65625 C 265.929688 282.511719 267.328125 281.332031 268.699219 280.125 C 270.070312 278.914062 271.414062 277.675781 272.730469 276.40625 C 274.046875 275.136719 275.335938 273.839844 276.59375 272.511719 C 277.851562 271.1875 279.082031 269.832031 280.277344 268.453125 C 281.476562 267.070312 282.644531 265.664062 283.777344 264.230469 C 284.914062 262.796875 286.015625 261.335938 287.085938 259.855469 C 288.15625 258.371094 289.195312 256.867188 290.195312 255.335938 C 291.199219 253.808594 292.167969 252.257812 293.101562 250.683594 C 294.035156 249.113281 294.933594 247.519531 295.796875 245.910156 C 296.660156 244.296875 297.484375 242.664062 298.273438 241.015625 C 299.066406 239.367188 299.816406 237.699219 300.53125 236.019531 C 301.246094 234.335938 301.925781 232.636719 302.566406 230.925781 C 303.203125 229.210938 303.804688 227.484375 304.367188 225.746094 C 304.929688 224.003906 305.453125 222.253906 305.9375 220.488281 C 306.421875 218.726562 306.867188 216.953125 307.269531 215.171875 C 307.675781 213.386719 308.042969 211.59375 308.367188 209.796875 C 308.691406 207.996094 308.976562 206.191406 309.21875 204.378906 C 309.464844 202.566406 309.667969 200.75 309.832031 198.929688 C 309.996094 197.105469 310.117188 195.285156 310.199219 193.457031 C 310.28125 191.628906 310.320312 189.800781 310.320312 187.972656 C 310.324219 183.726562 310.105469 179.492188 309.671875 175.265625 L 340.726562 204.898438 C 340.921875 205.082031 341.140625 205.21875 341.386719 205.320312 C 341.632812 205.417969 341.886719 205.464844 342.152344 205.464844 C 342.417969 205.464844 342.671875 205.417969 342.917969 205.316406 C 343.164062 205.21875 343.382812 205.082031 343.578125 204.898438 L 374.578125 175.320312 C 374.859375 179.5 375.015625 183.71875 375.015625 187.972656 C 375.015625 285.644531 300.34375 365.863281 204.96875 374.675781 L 174.925781 342.621094 Z M 204.855469 309.566406 " fill-opacity="1" fill-rule="nonzero"/><path fill="#00b4d8" d="M 309.566406 170.144531 C 309.308594 168.335938 309.007812 166.53125 308.667969 164.734375 C 308.328125 162.9375 307.949219 161.152344 307.53125 159.371094 C 307.109375 157.59375 306.652344 155.824219 306.152344 154.0625 C 305.65625 152.304688 305.117188 150.558594 304.539062 148.824219 C 303.964844 147.089844 303.347656 145.367188 302.695312 143.660156 C 302.042969 141.953125 301.351562 140.261719 300.621094 138.585938 C 299.894531 136.90625 299.128906 135.25 298.324219 133.605469 C 297.523438 131.964844 296.683594 130.339844 295.808594 128.734375 C 294.933594 127.128906 294.019531 125.546875 293.074219 123.980469 C 292.128906 122.417969 291.148438 120.875 290.132812 119.355469 C 289.117188 117.832031 288.070312 116.335938 286.988281 114.863281 C 285.90625 113.390625 284.789062 111.941406 283.644531 110.515625 C 282.496094 109.09375 281.320312 107.695312 280.109375 106.324219 C 278.902344 104.953125 277.664062 103.609375 276.394531 102.292969 C 275.125 100.976562 273.828125 99.691406 272.5 98.433594 C 271.171875 97.171875 269.820312 95.945312 268.4375 94.75 C 267.058594 93.550781 265.648438 92.382812 264.214844 91.25 C 262.78125 90.113281 261.324219 89.011719 259.84375 87.941406 C 258.359375 86.875 256.855469 85.835938 255.324219 84.835938 C 253.796875 83.832031 252.246094 82.863281 250.675781 81.929688 C 249.101562 81 247.511719 80.101562 245.898438 79.238281 C 244.285156 78.375 242.65625 77.550781 241.007812 76.761719 C 239.355469 75.972656 237.691406 75.21875 236.007812 74.503906 C 234.328125 73.789062 232.628906 73.113281 230.914062 72.472656 C 229.203125 71.835938 227.476562 71.234375 225.738281 70.671875 C 223.996094 70.109375 222.246094 69.585938 220.484375 69.101562 C 218.71875 68.617188 216.949219 68.175781 215.164062 67.769531 C 213.382812 67.363281 211.589844 67 209.792969 66.675781 C 207.992188 66.351562 206.1875 66.066406 204.375 65.820312 C 202.5625 65.578125 200.746094 65.375 198.925781 65.210938 C 197.105469 65.046875 195.28125 64.925781 193.457031 64.84375 C 191.628906 64.761719 189.800781 64.722656 187.972656 64.722656 C 183.726562 64.722656 179.492188 64.9375 175.265625 65.371094 L 204.898438 34.316406 C 205.082031 34.125 205.222656 33.90625 205.324219 33.660156 C 205.421875 33.414062 205.472656 33.15625 205.472656 32.890625 C 205.472656 32.625 205.421875 32.371094 205.324219 32.125 C 205.222656 31.878906 205.082031 31.65625 204.898438 31.464844 L 175.320312 0.414062 C 179.5 0.140625 183.71875 -0.015625 187.972656 -0.015625 C 285.644531 -0.015625 365.863281 74.667969 374.667969 170.03125 L 342.621094 200.074219 Z M 309.566406 170.144531 " fill-opacity="1" fill-rule="nonzero"/><path fill="#90e0ef" d="M 170.144531 66.308594 C 168.335938 66.566406 166.53125 66.867188 164.734375 67.207031 C 162.9375 67.546875 161.152344 67.925781 159.371094 68.347656 C 157.59375 68.765625 155.824219 69.226562 154.0625 69.722656 C 152.304688 70.222656 150.558594 70.757812 148.824219 71.335938 C 147.089844 71.914062 145.367188 72.527344 143.660156 73.179688 C 141.953125 73.835938 140.261719 74.523438 138.585938 75.253906 C 136.90625 75.984375 135.25 76.75 133.605469 77.550781 C 131.964844 78.355469 130.339844 79.195312 128.734375 80.070312 C 127.128906 80.945312 125.546875 81.855469 123.980469 82.800781 C 122.417969 83.75 120.875 84.730469 119.355469 85.746094 C 117.832031 86.757812 116.335938 87.808594 114.863281 88.890625 C 113.390625 89.972656 111.941406 91.085938 110.515625 92.234375 C 109.09375 93.378906 107.695312 94.558594 106.324219 95.765625 C 104.953125 96.976562 103.609375 98.214844 102.292969 99.484375 C 100.976562 100.753906 99.691406 102.050781 98.433594 103.375 C 97.171875 104.703125 95.945312 106.058594 94.75 107.4375 C 93.550781 108.820312 92.382812 110.226562 91.25 111.660156 C 90.113281 113.09375 89.011719 114.550781 87.941406 116.035156 C 86.875 117.515625 85.835938 119.023438 84.835938 120.550781 C 83.832031 122.082031 82.863281 123.628906 81.929688 125.203125 C 81 126.773438 80.101562 128.367188 79.238281 129.980469 C 78.375 131.589844 77.550781 133.222656 76.761719 134.871094 C 75.972656 136.519531 75.21875 138.1875 74.503906 139.867188 C 73.789062 141.550781 73.113281 143.25 72.472656 144.960938 C 71.835938 146.675781 71.234375 148.398438 70.671875 150.140625 C 70.109375 151.878906 69.585938 153.628906 69.101562 155.394531 C 68.617188 157.15625 68.175781 158.929688 67.769531 160.710938 C 67.363281 162.496094 67 164.285156 66.675781 166.085938 C 66.351562 167.882812 66.066406 169.691406 65.820312 171.5 C 65.578125 173.3125 65.375 175.128906 65.210938 176.949219 C 65.046875 178.773438 64.925781 180.59375 64.84375 182.421875 C 64.761719 184.246094 64.722656 186.074219 64.722656 187.902344 C 64.71875 192.148438 64.9375 196.386719 65.371094 200.609375 L 34.273438 170.976562 C 34.078125 170.796875 33.859375 170.65625 33.613281 170.558594 C 33.367188 170.460938 33.113281 170.410156 32.847656 170.410156 C 32.582031 170.410156 32.328125 170.460938 32.082031 170.558594 C 31.835938 170.65625 31.617188 170.796875 31.421875 170.976562 L 0.421875 200.558594 C 0.140625 196.375 -0.015625 192.15625 -0.015625 187.902344 C -0.015625 90.234375 74.65625 10.015625 170.03125 1.203125 L 200.074219 33.253906 Z M 170.144531 66.308594 " fill-opacity="1" fill-rule="nonzero"/><path fill="#03045e" d="M 65.90625 204.855469 C 66.164062 206.664062 66.464844 208.46875 66.800781 210.265625 C 67.140625 212.0625 67.519531 213.851562 67.941406 215.632812 C 68.359375 217.410156 68.816406 219.179688 69.316406 220.941406 C 69.8125 222.699219 70.351562 224.445312 70.925781 226.183594 C 71.503906 227.917969 72.117188 229.640625 72.769531 231.347656 C 73.421875 233.054688 74.113281 234.75 74.84375 236.425781 C 75.570312 238.101562 76.335938 239.761719 77.140625 241.40625 C 77.941406 243.046875 78.78125 244.671875 79.65625 246.277344 C 80.53125 247.882812 81.441406 249.46875 82.386719 251.035156 C 83.332031 252.597656 84.3125 254.140625 85.328125 255.664062 C 86.34375 257.183594 87.394531 258.679688 88.472656 260.15625 C 89.554688 261.628906 90.671875 263.078125 91.816406 264.503906 C 92.964844 265.929688 94.140625 267.328125 95.351562 268.699219 C 96.558594 270.070312 97.796875 271.414062 99.066406 272.730469 C 100.335938 274.046875 101.632812 275.335938 102.960938 276.59375 C 104.285156 277.851562 105.640625 279.082031 107.023438 280.277344 C 108.402344 281.476562 109.8125 282.644531 111.246094 283.777344 C 112.679688 284.914062 114.136719 286.015625 115.617188 287.085938 C 117.101562 288.15625 118.605469 289.195312 120.136719 290.195312 C 121.664062 291.199219 123.214844 292.167969 124.789062 293.101562 C 126.359375 294.035156 127.953125 294.933594 129.566406 295.796875 C 131.175781 296.660156 132.808594 297.484375 134.457031 298.273438 C 136.105469 299.0625 137.773438 299.816406 139.457031 300.53125 C 141.136719 301.246094 142.835938 301.925781 144.550781 302.566406 C 146.261719 303.203125 147.988281 303.804688 149.730469 304.367188 C 151.46875 304.929688 153.21875 305.453125 154.984375 305.9375 C 156.746094 306.421875 158.519531 306.867188 160.304688 307.269531 C 162.085938 307.675781 163.878906 308.042969 165.675781 308.367188 C 167.476562 308.691406 169.28125 308.976562 171.09375 309.21875 C 172.90625 309.464844 174.722656 309.667969 176.546875 309.832031 C 178.367188 309.996094 180.191406 310.117188 182.015625 310.199219 C 183.84375 310.28125 185.671875 310.320312 187.5 310.320312 C 191.746094 310.324219 195.984375 310.105469 200.207031 309.671875 L 170.574219 340.726562 C 170.390625 340.921875 170.253906 341.140625 170.15625 341.386719 C 170.058594 341.632812 170.007812 341.886719 170.007812 342.152344 C 170.007812 342.417969 170.058594 342.671875 170.15625 342.917969 C 170.253906 343.164062 170.390625 343.382812 170.574219 343.578125 L 200.15625 374.578125 C 195.972656 374.859375 191.753906 375.015625 187.5 375.015625 C 89.828125 375.015625 9.613281 300.34375 0.796875 204.96875 L 32.84375 174.925781 Z M 65.90625 204.855469 " fill-opacity="1" fill-rule="nonzero"/><g fill="#03045e" fill-opacity="1"><g transform="translate(85.289573, 177.307638)"><g><path d="M 35.546875 -14.90625 L 46.328125 -14.90625 C 45.335938 -11.894531 43.785156 -9.21875 41.671875 -6.875 C 39.566406 -4.53125 37.070312 -2.691406 34.1875 -1.359375 C 31.3125 -0.0234375 28.195312 0.640625 24.84375 0.640625 C 21.738281 0.640625 18.820312 0.0625 16.09375 -1.09375 C 13.363281 -2.257812 10.953125 -3.882812 8.859375 -5.96875 C 6.773438 -8.050781 5.15625 -10.457031 4 -13.1875 C 2.84375 -15.925781 2.265625 -18.84375 2.265625 -21.9375 C 2.265625 -25.03125 2.84375 -27.941406 4 -30.671875 C 5.15625 -33.410156 6.773438 -35.820312 8.859375 -37.90625 C 10.953125 -39.988281 13.363281 -41.609375 16.09375 -42.765625 C 18.820312 -43.929688 21.738281 -44.515625 24.84375 -44.515625 C 28.195312 -44.515625 31.300781 -43.847656 34.15625 -42.515625 C 37.019531 -41.179688 39.503906 -39.363281 41.609375 -37.0625 C 43.722656 -34.757812 45.269531 -32.101562 46.25 -29.09375 L 35.484375 -29.09375 C 34.578125 -31.070312 33.132812 -32.628906 31.15625 -33.765625 C 29.175781 -34.910156 27.070312 -35.484375 24.84375 -35.484375 C 22.476562 -35.484375 20.328125 -34.867188 18.390625 -33.640625 C 16.453125 -32.421875 14.910156 -30.785156 13.765625 -28.734375 C 12.628906 -26.691406 12.0625 -24.425781 12.0625 -21.9375 C 12.0625 -19.4375 12.628906 -17.164062 13.765625 -15.125 C 14.910156 -13.082031 16.453125 -11.445312 18.390625 -10.21875 C 20.328125 -9 22.476562 -8.390625 24.84375 -8.390625 C 27.125 -8.390625 29.25 -8.988281 31.21875 -10.1875 C 33.195312 -11.394531 34.640625 -12.96875 35.546875 -14.90625 Z M 35.546875 -14.90625 "/></g></g></g><g fill="#03045e" fill-opacity="1"><g transform="translate(133.211807, 177.307638)"><g><path d="M 3.875 0 L 3.875 -43.875 L 13.546875 -43.875 L 13.546875 -8.78125 L 29.296875 -8.78125 L 29.296875 0 Z M 3.875 0 "/></g></g></g><g fill="#03045e" fill-opacity="1"><g transform="translate(164.751482, 177.307638)"><g><path d="M 13.546875 0 L 3.875 0 L 3.875 -43.875 L 13.546875 -43.875 Z M 13.546875 0 "/></g></g></g><g fill="#03045e" fill-opacity="1"><g transform="translate(182.166014, 177.307638)"><g><path d="M 38.328125 0 L 28.640625 0 L 13.546875 -27.359375 L 13.546875 0 L 3.875 0 L 3.875 -43.875 L 13.546875 -43.875 L 28.640625 -16.515625 L 28.640625 -43.875 L 38.328125 -43.875 Z M 38.328125 0 "/></g></g></g><g fill="#03045e" fill-opacity="1"><g transform="translate(224.347895, 177.307638)"><g><path d="M 13.546875 0 L 3.875 0 L 3.875 -43.875 L 13.546875 -43.875 Z M 13.546875 0 "/></g></g></g><g fill="#03045e" fill-opacity="1"><g transform="translate(241.762427, 177.307638)"><g><path d="M 35.546875 -14.90625 L 46.328125 -14.90625 C 45.335938 -11.894531 43.785156 -9.21875 41.671875 -6.875 C 39.566406 -4.53125 37.070312 -2.691406 34.1875 -1.359375 C 31.3125 -0.0234375 28.195312 0.640625 24.84375 0.640625 C 21.738281 0.640625 18.820312 0.0625 16.09375 -1.09375 C 13.363281 -2.257812 10.953125 -3.882812 8.859375 -5.96875 C 6.773438 -8.050781 5.15625 -10.457031 4 -13.1875 C 2.84375 -15.925781 2.265625 -18.84375 2.265625 -21.9375 C 2.265625 -25.03125 2.84375 -27.941406 4 -30.671875 C 5.15625 -33.410156 6.773438 -35.820312 8.859375 -37.90625 C 10.953125 -39.988281 13.363281 -41.609375 16.09375 -42.765625 C 18.820312 -43.929688 21.738281 -44.515625 24.84375 -44.515625 C 28.195312 -44.515625 31.300781 -43.847656 34.15625 -42.515625 C 37.019531 -41.179688 39.503906 -39.363281 41.609375 -37.0625 C 43.722656 -34.757812 45.269531 -32.101562 46.25 -29.09375 L 35.484375 -29.09375 C 34.578125 -31.070312 33.132812 -32.628906 31.15625 -33.765625 C 29.175781 -34.910156 27.070312 -35.484375 24.84375 -35.484375 C 22.476562 -35.484375 20.328125 -34.867188 18.390625 -33.640625 C 16.453125 -32.421875 14.910156 -30.785156 13.765625 -28.734375 C 12.628906 -26.691406 12.0625 -24.425781 12.0625 -21.9375 C 12.0625 -19.4375 12.628906 -17.164062 13.765625 -15.125 C 14.910156 -13.082031 16.453125 -11.445312 18.390625 -10.21875 C 20.328125 -9 22.476562 -8.390625 24.84375 -8.390625 C 27.125 -8.390625 29.25 -8.988281 31.21875 -10.1875 C 33.195312 -11.394531 34.640625 -12.96875 35.546875 -14.90625 Z M 35.546875 -14.90625 "/></g></g></g><g fill="#03045e" fill-opacity="1"><g transform="translate(136.145178, 240.160495)"><g><path d="M 23.03125 -0.515625 C 21.226562 0.253906 19.441406 0.640625 17.671875 0.640625 C 15.867188 0.640625 14.238281 0.40625 12.78125 -0.0625 C 11.3125 -0.539062 9.976562 -1.207031 8.78125 -2.0625 C 6.15625 -3.820312 4.328125 -6.144531 3.296875 -9.03125 L 7.671875 -10.515625 C 8.410156 -8.492188 9.660156 -6.898438 11.421875 -5.734375 C 13.179688 -4.535156 14.941406 -3.9375 16.703125 -3.9375 C 18.472656 -3.9375 19.976562 -4.21875 21.21875 -4.78125 C 22.46875 -5.289062 23.566406 -6 24.515625 -6.90625 C 26.535156 -8.882812 27.546875 -11.25 27.546875 -14 C 27.546875 -16.789062 26.554688 -19.195312 24.578125 -21.21875 C 22.554688 -23.195312 20.128906 -24.1875 17.296875 -24.1875 C 14.453125 -24.1875 12 -23.15625 9.9375 -21.09375 L 6.515625 -23.875 L 19.8125 -39.359375 L 5.359375 -39.359375 L 5.359375 -43.875 L 28.96875 -43.875 L 15.21875 -27.609375 L 17.15625 -28.78125 C 21.375 -28.519531 24.878906 -27.054688 27.671875 -24.390625 C 30.597656 -21.503906 32.0625 -18.019531 32.0625 -13.9375 C 32.0625 -9.851562 30.617188 -6.410156 27.734375 -3.609375 C 26.359375 -2.273438 24.789062 -1.242188 23.03125 -0.515625 Z M 23.03125 -0.515625 "/></g></g></g><g fill="#03045e" fill-opacity="1"><g transform="translate(169.684309, 240.160495)"><g><path d="M 16.640625 -23.9375 C 15.222656 -23.9375 13.890625 -23.675781 12.640625 -23.15625 C 11.398438 -22.601562 10.304688 -21.875 9.359375 -20.96875 C 7.335938 -19.03125 6.328125 -16.6875 6.328125 -13.9375 C 6.328125 -11.132812 7.335938 -8.769531 9.359375 -6.84375 C 11.421875 -4.820312 13.828125 -3.8125 16.578125 -3.8125 C 19.421875 -3.8125 21.804688 -4.773438 23.734375 -6.703125 C 25.710938 -8.679688 26.703125 -11.023438 26.703125 -13.734375 C 26.703125 -16.492188 25.738281 -18.882812 23.8125 -20.90625 C 21.832031 -22.925781 19.441406 -23.9375 16.640625 -23.9375 Z M 31.296875 -14.0625 C 31.296875 -11.914062 30.90625 -9.957031 30.125 -8.1875 C 29.351562 -6.425781 28.300781 -4.878906 26.96875 -3.546875 C 24.125 -0.710938 20.640625 0.703125 16.515625 0.703125 C 12.472656 0.703125 8.988281 -0.734375 6.0625 -3.609375 C 3.175781 -6.410156 1.734375 -9.851562 1.734375 -13.9375 C 1.734375 -17.457031 2.832031 -20.53125 5.03125 -23.15625 L 22.1875 -43.875 L 28.125 -43.875 L 14.703125 -27.734375 L 16 -28.578125 C 20.382812 -28.410156 23.976562 -27.054688 26.78125 -24.515625 C 29.789062 -21.804688 31.296875 -18.320312 31.296875 -14.0625 Z M 31.296875 -14.0625 "/></g></g></g><g fill="#03045e" fill-opacity="1"><g transform="translate(202.707439, 240.160495)"><g><path d="M 21.609375 -38.78125 C 20.535156 -39.414062 19.289062 -39.734375 17.875 -39.734375 C 16.40625 -39.734375 15.15625 -39.4375 14.125 -38.84375 C 13.050781 -38.195312 12.148438 -37.359375 11.421875 -36.328125 C 10.648438 -35.296875 10.023438 -34.132812 9.546875 -32.84375 C 9.078125 -31.550781 8.710938 -30.257812 8.453125 -28.96875 C 7.972656 -26.5625 7.734375 -24.539062 7.734375 -22.90625 C 7.734375 -21.269531 7.800781 -19.828125 7.9375 -18.578125 C 8.019531 -17.328125 8.191406 -16.035156 8.453125 -14.703125 C 8.710938 -13.367188 9.097656 -12.082031 9.609375 -10.84375 C 10.085938 -9.550781 10.710938 -8.410156 11.484375 -7.421875 C 13.160156 -5.140625 15.332031 -4 18 -4 C 20.40625 -4 22.445312 -5.140625 24.125 -7.421875 C 26.0625 -10.128906 27.289062 -13.867188 27.8125 -18.640625 C 27.9375 -19.847656 28 -20.90625 28 -21.8125 C 28 -25.675781 27.375 -29.351562 26.125 -32.84375 C 25.132812 -35.550781 23.628906 -37.53125 21.609375 -38.78125 Z M 18.0625 0.578125 C 12.863281 0.578125 8.972656 -1.976562 6.390625 -7.09375 C 4.273438 -11.132812 3.21875 -16.101562 3.21875 -22 C 3.21875 -27.894531 4.273438 -32.882812 6.390625 -36.96875 C 8.972656 -42.039062 12.863281 -44.578125 18.0625 -44.578125 C 23.269531 -44.578125 27.1875 -42.039062 29.8125 -36.96875 C 31.875 -32.882812 32.90625 -27.894531 32.90625 -22 C 32.90625 -16.101562 31.875 -11.132812 29.8125 -7.09375 C 27.1875 -1.976562 23.269531 0.578125 18.0625 0.578125 Z M 18.0625 0.578125 "/></g></g></g></svg>