<?xml version="1.0" encoding="utf-8"?>
<svg xmlns="http://www.w3.org/2000/svg" viewBox="4.9 0 480.2 490" width="784px" height="800px">
  <g transform="matrix(1, 0, 0, 1, 0, 3.552713678800501e-15)">
    <path d="M72.2,87.1c5.4,0,9.7-4.3,9.7-9.7V9.7c0-5.4-4.3-9.7-9.7-9.7c-5.4,0-9.7,4.3-9.7,9.7v67.7C62.4,82.8,67.1,87.1,72.2,87.1z " style="fill: rgb(3, 4, 94);"/>
    <path d="M146.8,87.1c5.4,0,9.7-4.3,9.7-9.7V9.7c0-5.4-4.3-9.7-9.7-9.7s-9.7,4.3-9.7,9.7v67.7C137.1,82.8,141.4,87.1,146.8,87.1z" style="fill: rgb(3, 4, 94);"/>
    <path d="M342.8,87.1c5.4,0,9.7-4.3,9.7-9.7V9.7c0-5.4-4.3-9.7-9.7-9.7c-5.4,0-9.7,4.3-9.7,9.7v67.7 C333.1,82.8,337.3,87.1,342.8,87.1z" style="fill: rgb(3, 4, 94);"/>
    <path d="M417.4,87.1c5.4,0,9.7-4.3,9.7-9.7V9.7c0-5.4-4.3-9.7-9.7-9.7c-5.4,0-9.7,4.3-9.7,9.7v67.7 C407.7,82.8,412,87.1,417.4,87.1z" style="fill: rgb(3, 4, 94);"/>
    <path d="M446.6,43.5v33.8c0,16.3-13.2,29.2-29.2,29.2s-29.2-13.2-29.2-29.2V43.5h-15.9v33.8c0,16.3-13.2,29.2-29.2,29.2 S314,93.3,314,77.4V43.5H176v33.8c0,16.3-13.2,29.2-29.2,29.2s-29.2-13.2-29.2-29.2V43.5h-15.9v33.8c0,16.3-13.2,29.2-29.2,29.2 S43.3,93.3,43.3,77.3V43.5H4.9V136h480.2V43.5H446.6z" style="fill: rgb(3, 4, 94);"/>
    <g>
      <polygon points="293.5,346.5 293.5,298.9 260.5,346.5 &#9;&#9;&#9;" style="fill: rgb(3, 4, 94);"/>
      <path d="M4.9,156v334h480.2V156H4.9z M190,399.2c0,7.3-5.9,13.2-13.2,13.2s-13.2-5.9-13.2-13.2V260h-16.9 c-7.3,0-13.2-5.9-13.2-13.2c0-7.3,5.9-13.2,13.2-13.2h30.1c7.3,0,13.2,5.9,13.2,13.2L190,399.2L190,399.2z M341.1,377.4h-16.8 v19.1c0,8.5-6.9,15.4-15.4,15.4s-15.4-6.9-15.4-15.4v-19.1h-62.3c-5.7,0-11-3.2-13.6-8.3c-2.7-5.1-2.3-11.2,1-15.9l77.8-112.4 c3.8-5.5,10.8-8,17.3-5.9c6.4,2,10.8,8,10.8,14.7v97h16.8c8.5,0,15.4,6.9,15.4,15.4C356.5,370.5,349.6,377.4,341.1,377.4z" style="fill: rgb(3, 4, 94);"/>
    </g>
  </g>
</svg>